<?xml version="1.0" standalone="no"?>
<!DOCTYPE svg PUBLIC "-//W3C//DTD SVG 20010904//EN"
 "http://www.w3.org/TR/2001/REC-SVG-20010904/DTD/svg10.dtd">
<svg version="1.0" xmlns="http://www.w3.org/2000/svg"
 width="200.000000pt" height="57.000000pt" viewBox="0 0 200.000000 57.000000"
 preserveAspectRatio="xMidYMid meet">

<g transform="translate(0.000000,57.000000) scale(0.100000,-0.100000)"
fill="#FFFFFF" stroke="none">
<path d="M0 506 c0 -123 7 -126 260 -126 225 0 260 10 260 76 0 19 -44 18 -60
-1 -10 -12 -45 -15 -199 -15 -132 0 -191 4 -199 12 -7 7 -12 36 -12 65 0 50
-1 53 -25 53 -24 0 -25 -2 -25 -64z"/>
<path d="M470 540 c0 -27 3 -30 30 -30 27 0 30 3 30 30 0 27 -3 30 -30 30 -27
0 -30 -3 -30 -30z"/>
<path d="M1260 518 c0 -30 -5 -59 -12 -66 -9 -9 -82 -12 -265 -12 l-253 0 -14
33 c-25 60 -101 73 -146 25 -25 -27 -31 -90 -9 -113 14 -14 11 -25 -7 -25 -11
0 -14 -8 -12 -27 2 -21 9 -29 27 -31 46 -7 91 9 124 43 l34 35 257 0 c292 0
307 3 326 68 7 20 10 55 8 77 -3 35 -6 40 -30 43 -27 3 -28 2 -28 -50z m-595
-69 c14 -43 -45 -66 -61 -24 -8 19 13 45 37 45 10 0 21 -10 24 -21z"/>
<path d="M1852 549 c8 -13 28 -26 44 -29 l28 -5 -27 -12 c-17 -8 -27 -20 -27
-33 l0 -21 39 22 c21 12 51 31 66 44 l28 22 -64 12 c-35 7 -73 15 -84 18 -18
5 -18 4 -3 -18z"/>
<path d="M1500 514 c-89 -39 -150 -137 -150 -244 1 -109 48 -188 142 -236 74
-38 87 -31 40 20 -71 77 -91 201 -48 300 21 50 27 44 14 -15 -24 -104 27 -220
122 -276 68 -41 97 -41 151 0 98 74 129 218 72 327 -36 69 -52 78 -100 61 -69
-25 -69 -25 -57 -12 6 7 38 23 70 37 55 23 56 25 19 19 -154 -25 -266 -158
-237 -283 13 -59 7 -67 -14 -16 -22 52 -22 140 1 184 24 48 72 98 118 121 20
11 37 22 37 24 0 12 -148 3 -180 -11z"/>
<path d="M1122 268 c-40 -32 -51 -48 -33 -48 13 0 98 79 85 80 -7 0 -30 -15
-52 -32z"/>
<path d="M600 265 c0 -31 47 -65 90 -65 36 0 40 2 40 25 0 22 -4 25 -35 25
-22 0 -38 6 -41 15 -8 20 -54 20 -54 0z"/>
<path d="M1128 223 c-46 -36 -58 -52 -58 -74 l0 -28 93 -3 c91 -3 92 -3 92
-28 l0 -25 -180 0 -180 0 -3 38 c-3 33 -6 37 -32 37 -26 0 -29 -4 -32 -37 -3
-33 -6 -38 -28 -38 -22 0 -25 5 -28 38 -3 32 -7 37 -28 37 -20 0 -24 -5 -24
-27 0 -39 -13 -55 -41 -51 -20 2 -25 10 -27 41 -3 31 -7 37 -27 37 -20 0 -24
-6 -27 -37 l-3 -38 -80 0 -80 0 -3 38 c-3 32 -7 37 -28 37 -18 0 -24 -5 -24
-21 0 -11 -5 -29 -10 -40 -10 -17 -23 -19 -164 -19 -166 0 -166 0 -166 56 0
17 -6 24 -20 24 -17 0 -20 -7 -20 -50 0 -80 -2 -80 326 -79 164 0 284 5 291
10 7 7 13 6 18 -1 8 -13 70 -13 95 0 11 6 21 6 24 1 3 -5 119 -9 257 -10 247
-2 252 -1 275 20 32 30 33 87 1 117 -18 17 -36 22 -75 22 -29 0 -52 3 -52 7 0
3 15 19 32 33 28 24 31 30 19 44 -7 9 -16 16 -20 16 -3 0 -32 -21 -63 -47z"/>
<path d="M320 225 c0 -24 3 -25 55 -25 52 0 55 1 55 25 0 24 -3 25 -55 25 -52
0 -55 -1 -55 -25z"/>
</g>
</svg>
